<?xml version="1.0" encoding="utf-8"?>
<!-- Generator: Adobe Illustrator 20.0.0, SVG Export Plug-In . SVG Version: 6.00 Build 0)  -->
<svg version="1.1" id="Layer_1" xmlns="http://www.w3.org/2000/svg" xmlns:xlink="http://www.w3.org/1999/xlink" x="0px" y="0px"
	 viewBox="0 0 150 75" style="enable-background:new 0 0 150 75;" xml:space="preserve">
<style type="text/css">
	.st0{stroke:#3C2415;stroke-miterlimit:10;}
	.st1{fill:#F05556;}
	.st2{fill:#FFFFFF;}
</style>
<path class="st0" d="M8.5,37.1"/>
<g>
	<path class="st1" d="M49.9,23.9c0,0.4-0.1,0.7-0.4,0.9c-0.2,0.2-0.6,0.4-1,0.5c-0.6,0.1-1.3,0.2-2,0.2c-0.7,0-1.3,0-2,0.1v3.1
		c0,2.6,0.1,5.2,0.3,7.9c0.2,2.6,0.5,5.2,0.9,7.8c0,0.2,0.1,0.3,0.1,0.5c0,0.2,0.1,0.3,0.1,0.5c0,0.3-0.1,0.4-0.2,0.5
		C45.5,46,45.3,46,45.1,46c-0.2,0-0.5,0-0.8-0.1c-0.3,0-0.5-0.1-0.7-0.2c-0.2-0.1-0.4-0.3-0.4-0.4c-0.1-0.1-0.1-0.3-0.1-0.5
		c-0.1-0.7-0.2-1.5-0.3-2.2c0-0.7-0.1-1.5-0.2-2.2c-0.1-1.6-0.3-3.2-0.3-4.7c-0.1-1.6-0.1-3.2-0.1-4.7c0-0.9,0-1.7,0-2.6
		c0-0.9,0-1.7,0-2.6c-0.7,0.1-1.4,0.1-2.2,0.2C39.2,26,38.5,26,37.8,26c-0.2,0-0.3,0-0.4-0.1c-0.1-0.1-0.2-0.2-0.2-0.4
		c0-0.4,0.1-0.6,0.4-0.9s0.6-0.3,1-0.4c0.6-0.1,1.2-0.2,1.8-0.2s1.2-0.1,1.8-0.1c0-0.1,0-0.2,0-0.3c0-0.1,0-0.2,0.1-0.3
		c0-0.1,0.1-0.1,0.2-0.2c0.1-0.1,0.2-0.1,0.3-0.1c0.3,0,0.6,0.1,0.9,0.2c0.3,0.1,0.5,0.3,0.7,0.5l2.9-0.3c0.3,0,0.6-0.1,0.8-0.1
		c0.3,0,0.6-0.1,0.8-0.1c0.1,0,0.3,0,0.4,0s0.2,0,0.3,0.1s0.2,0.1,0.2,0.2C49.8,23.7,49.9,23.8,49.9,23.9z"/>
	<path class="st1" d="M62,33.4c0,0.4,0,0.9,0,1.5c0,0.6-0.1,1.2-0.1,1.9c-0.1,0.7-0.2,1.3-0.3,2s-0.3,1.4-0.5,2s-0.4,1.3-0.7,1.9
		c-0.3,0.6-0.6,1.1-1,1.5c-0.4,0.4-0.9,0.8-1.4,1c-0.5,0.3-1.1,0.4-1.8,0.4s-1.3-0.1-1.9-0.4c-0.6-0.3-1-0.7-1.4-1.1
		c-0.3-0.4-0.6-0.8-0.8-1.4c-0.2-0.5-0.4-1.1-0.6-1.8c-0.2-0.6-0.3-1.3-0.5-2c-0.1-0.7-0.2-1.4-0.3-2.1c-0.1-0.7-0.1-1.3-0.2-1.9
		c0-0.6-0.1-1.1-0.1-1.6c0-0.8,0-1.6,0.1-2.4c0.1-0.8,0.2-1.7,0.4-2.5c0.2-0.8,0.5-1.6,0.9-2.4c0.4-0.8,0.8-1.5,1.4-2.1
		c0.1-0.1,0.1-0.1,0.2-0.2c0.1-0.1,0.2-0.2,0.3-0.2c0.1-0.1,0.2-0.1,0.3-0.2c0.1-0.1,0.2-0.1,0.3-0.1c0.1,0,0.2,0,0.3,0.1
		c0.1,0.1,0.2,0.1,0.3,0.2c0.2-0.1,0.5-0.2,0.8-0.3c0.3-0.1,0.5-0.1,0.8-0.1c0.8,0,1.6,0.2,2.2,0.5s1.1,0.8,1.5,1.4
		c0.4,0.6,0.7,1.2,1,2s0.4,1.5,0.6,2.3c0.1,0.8,0.2,1.5,0.2,2.2C62,32.2,62,32.9,62,33.4z M59.3,34.1c0-0.3,0-0.7,0-1.2
		s-0.1-1.2-0.1-1.8S59,29.7,58.9,29s-0.3-1.4-0.5-1.9c-0.2-0.6-0.5-1.1-0.8-1.4c-0.3-0.4-0.7-0.6-1.1-0.6c-0.2,0-0.3,0.1-0.5,0.2
		c-0.1,0.1-0.3,0.3-0.4,0.6c-0.1,0.2-0.2,0.5-0.3,0.8s-0.2,0.5-0.3,0.8s-0.2,0.5-0.3,0.7c-0.1,0.2-0.2,0.3-0.3,0.4
		c0,0-0.1,0-0.2,0.1c-0.1,0-0.1,0-0.2,0c-0.2,0-0.4,0-0.6-0.1c-0.2,0.7-0.3,1.4-0.4,2.1s-0.1,1.4-0.1,2.1c0,0.2,0,0.5,0,1
		s0.1,0.9,0.1,1.5c0,0.6,0.1,1.2,0.2,1.8c0.1,0.6,0.2,1.3,0.3,1.9c0.1,0.6,0.3,1.3,0.4,1.8c0.2,0.6,0.3,1.1,0.5,1.6
		c0.2,0.5,0.4,0.8,0.7,1.1c0.3,0.3,0.5,0.4,0.9,0.4c0.2,0,0.3,0,0.5-0.1s0.3-0.2,0.4-0.3c0.3-0.3,0.6-0.7,0.9-1.1
		c0.3-0.5,0.5-1,0.6-1.5s0.3-1.1,0.4-1.7s0.2-1.2,0.3-1.8c0.1-0.6,0.1-1.2,0.1-1.7C59.3,35,59.3,34.5,59.3,34.1z"/>
	<path class="st1" d="M75.7,28.6c0,1-0.2,2.1-0.5,3.1c-0.4,1-0.9,2-1.5,2.9c-0.7,0.9-1.4,1.7-2.4,2.4s-1.9,1.2-3,1.6
		c0.1,0.9,0.2,1.7,0.2,2.6c0.1,0.9,0.2,1.7,0.4,2.6c0,0.2,0.1,0.3,0.1,0.5c0,0.2,0.1,0.3,0.1,0.5c0,0.3-0.1,0.5-0.2,0.5
		c-0.2,0.1-0.4,0.1-0.6,0.1c-0.2,0-0.4,0-0.7-0.1c-0.3,0-0.5-0.1-0.7-0.2c-0.2-0.1-0.4-0.2-0.5-0.4s-0.1-0.3-0.2-0.5
		c-0.2-0.9-0.3-1.8-0.4-2.7c0-0.9-0.1-1.8-0.2-2.7c-0.2,0-0.4-0.1-0.6-0.2c-0.2-0.1-0.2-0.2-0.2-0.5c0-0.2,0.1-0.4,0.2-0.7
		c0.1-0.2,0.3-0.4,0.5-0.5c-0.1-1.9-0.1-3.9-0.1-5.8c0-1.9,0-3.8,0-5.8c-0.1,0-0.1,0-0.2,0s-0.1,0-0.2,0c-0.1,0-0.2,0-0.3-0.1
		c-0.1-0.1-0.1-0.1-0.2-0.2c-0.1-0.1-0.1-0.2-0.1-0.3c0-0.1,0-0.2,0-0.3c0-0.3,0.1-0.5,0.3-0.7c0.2-0.1,0.4-0.3,0.7-0.4
		c0-0.1,0-0.2,0-0.4c0-0.2,0-0.3,0.1-0.4c0-0.1,0.1-0.2,0.2-0.3c0.1-0.1,0.2-0.1,0.4-0.1c0.3,0,0.6,0.1,0.9,0.2
		c0.3,0.1,0.5,0.3,0.6,0.5c0.4-0.1,0.8-0.1,1.2-0.2c0.4-0.1,0.8-0.1,1.2-0.1c0.9,0,1.7,0.1,2.4,0.4c0.7,0.3,1.3,0.7,1.8,1.2
		c0.5,0.5,0.9,1.1,1.1,1.8S75.7,27.8,75.7,28.6z M73.1,28.3c0-0.5-0.1-0.9-0.2-1.4c-0.1-0.4-0.3-0.8-0.6-1.1
		c-0.3-0.3-0.6-0.5-1.1-0.7c-0.4-0.2-0.9-0.3-1.5-0.3c-0.3,0-0.6,0-0.9,0.1s-0.6,0.1-0.9,0.2c0,1.9,0,3.8,0,5.7
		c0,1.9,0.1,3.8,0.2,5.6c0.7-0.3,1.4-0.8,2-1.4c0.6-0.6,1.1-1.3,1.6-2c0.4-0.7,0.8-1.5,1-2.3C73,29.8,73.1,29.1,73.1,28.3z"/>
	<path class="st1" d="M96.5,34.2c0,0.3-0.1,0.6-0.2,0.8c-0.1,0.2-0.3,0.3-0.5,0.4c-0.2,0.1-0.5,0.2-0.7,0.2c-0.3,0-0.5,0-0.8,0
		c0.6,0.6,1.1,1.3,1.5,2c0.4,0.8,0.6,1.5,0.6,2.4c0,0.8-0.2,1.6-0.5,2.4c-0.3,0.8-0.7,1.4-1.3,2c-0.6,0.6-1.2,1.1-2,1.4
		c-0.8,0.4-1.6,0.5-2.6,0.5c-0.8,0-1.4-0.1-2-0.4c-0.6-0.3-1.1-0.6-1.6-1.1c-0.5-0.5-0.9-1-1.2-1.6c-0.4-0.6-0.7-1.2-0.9-1.9
		c-0.3-0.7-0.5-1.4-0.6-2.1c-0.2-0.7-0.3-1.4-0.4-2.1s-0.2-1.4-0.2-2s-0.1-1.2-0.1-1.7c0-0.6,0-1.2,0.1-1.9c0.1-0.7,0.2-1.3,0.3-2
		s0.4-1.3,0.6-2c0.3-0.6,0.6-1.2,1-1.8c0.4-0.5,0.9-1,1.4-1.4c0.5-0.4,1.2-0.7,1.9-0.9c0.3-0.1,0.5-0.1,0.8-0.2
		c0.3,0,0.5-0.1,0.8-0.1c1.2,0,2.1,0.3,2.9,0.8c0.8,0.6,1.3,1.3,1.7,2.3c0.1,0.1,0.1,0.3,0.2,0.4c0,0.2,0.1,0.3,0.1,0.5
		c0,0.2-0.1,0.3-0.2,0.4s-0.3,0.1-0.5,0.1c-0.4,0-0.8-0.1-1-0.2c-0.3-0.1-0.5-0.3-0.6-0.5c-0.2-0.2-0.3-0.4-0.5-0.7
		c-0.1-0.2-0.3-0.5-0.4-0.7c-0.2-0.2-0.4-0.4-0.6-0.5c-0.2-0.1-0.6-0.2-1-0.2c-0.6,0-1.1,0.1-1.5,0.4c-0.4,0.3-0.8,0.7-1.1,1.1
		c-0.3,0.5-0.6,1-0.8,1.6c-0.2,0.6-0.4,1.2-0.5,1.8c-0.1,0.6-0.2,1.2-0.3,1.7c-0.1,0.6-0.1,1-0.1,1.4c0,0.4,0,1,0.1,1.7
		c0.1,0.7,0.2,1.5,0.3,2.3c0.1,0.8,0.3,1.7,0.5,2.6c0.2,0.9,0.5,1.7,0.9,2.4c0.3,0.7,0.7,1.3,1.2,1.7c0.5,0.4,1,0.7,1.6,0.7
		c0.5,0,1-0.1,1.5-0.4c0.4-0.3,0.8-0.6,1.1-1.1c0.3-0.4,0.5-0.9,0.7-1.4c0.2-0.5,0.2-1,0.2-1.4c0-0.4-0.1-0.8-0.2-1.2
		c-0.1-0.4-0.3-0.8-0.5-1.1c-0.2-0.4-0.5-0.7-0.8-1c-0.3-0.3-0.7-0.6-1.1-0.8c-0.1-0.1-0.3-0.2-0.5-0.2c-0.2-0.1-0.3-0.1-0.5-0.2
		c-0.1,0-0.3,0-0.5,0s-0.5,0-0.8-0.1s-0.5-0.1-0.7-0.1c-0.2-0.1-0.3-0.2-0.3-0.3c0-0.2,0-0.4,0.1-0.6c0.1-0.2,0.2-0.4,0.3-0.5
		c0.1-0.2,0.3-0.3,0.5-0.4c0.2-0.1,0.4-0.2,0.6-0.2c0.3,0,0.7,0,1.1,0.1c0.4,0.1,0.7,0.2,1,0.3c0.6,0,1.2-0.1,1.7-0.1
		c0.6,0,1.1-0.1,1.7-0.1c0.2,0,0.4,0,0.6-0.1s0.4,0,0.6,0c0.3,0,0.5,0.1,0.6,0.2C96.5,33.7,96.5,33.9,96.5,34.2z"/>
	<path class="st1" d="M100.3,32.3c0,0.2,0,0.3-0.1,0.4s-0.2,0.1-0.5,0.1c-0.1,0-0.3,0-0.5,0s-0.4-0.1-0.7-0.1
		c-0.2-0.1-0.4-0.1-0.6-0.2c-0.2-0.1-0.3-0.2-0.3-0.3c0,0,0-0.2,0.1-0.4c0-0.2,0.1-0.4,0.1-0.6c0.1-0.2,0.1-0.4,0.1-0.6
		c0-0.2,0.1-0.3,0.1-0.3v0c0.1-0.1,0.1-0.1,0.2-0.2c0.1,0,0.2,0,0.2,0c0.1,0,0.2,0,0.4,0c0.2,0,0.3,0.1,0.5,0.1
		c0.2,0,0.3,0.1,0.5,0.2s0.2,0.2,0.3,0.2s0.1,0.2,0.1,0.3c0,0.1,0,0.3,0,0.4c0,0,0,0.1,0,0.1c0,0.1,0,0.1,0,0.1c0,0.1,0,0.1,0,0.2
		c0,0.1,0,0.1,0,0.2s0,0.1,0,0.2C100.3,32.1,100.3,32.2,100.3,32.3z M100.9,44.7c0,0.2-0.1,0.4-0.2,0.5c-0.1,0.1-0.3,0.1-0.6,0.1
		c-0.1,0-0.3,0-0.5,0c-0.2,0-0.3-0.1-0.5-0.1c-0.2-0.1-0.3-0.1-0.5-0.2s-0.2-0.2-0.3-0.3c0-0.1-0.1-0.3-0.1-0.6
		c0-0.3-0.1-0.7-0.1-1.2c0-0.5,0-1-0.1-1.6c0-0.6,0-1.2,0-1.8c0-0.6,0-1.2,0-1.8c0-0.6,0-1.1,0-1.5v-1.2c0-0.1,0-0.2,0-0.3
		c0-0.1,0-0.2,0.1-0.3c0-0.1,0.1-0.1,0.2-0.2s0.2-0.1,0.4-0.1c0.5,0,0.9,0.1,1.1,0.4c0.2,0.3,0.4,0.6,0.4,1c0.1,0.6,0.1,1.3,0.1,1.9
		c0,0.6,0.1,1.3,0.1,1.9c0,0.6,0,1.2,0.1,1.7c0,0.6,0.1,1.1,0.1,1.7c0,0.1,0,0.2,0,0.3c0,0.1,0,0.2,0.1,0.3c0,0.2,0,0.4,0.1,0.6
		C100.9,44.3,100.9,44.5,100.9,44.7z"/>
	<path class="st1" d="M112.8,24.2c0,0.3-0.1,0.6-0.3,0.7c-0.2,0.2-0.4,0.3-0.7,0.4s-0.6,0.1-0.9,0.2c-0.3,0-0.6,0-0.9,0
		c-0.5,0-1,0-1.5,0c-0.5,0-1,0-1.5,0c-0.2,0-0.5,0-0.7,0s-0.5,0-0.7,0c-0.1,0.2-0.2,0.4-0.2,0.5c0,0.2,0,0.4,0,0.6
		c0,1,0,1.9,0.1,2.9c0.1,1,0.2,1.9,0.3,2.9c0.7-0.1,1.4-0.1,2.1-0.2c0.7-0.1,1.4-0.2,2.1-0.3c0.1,0,0.2,0,0.3,0c0.1,0,0.2,0,0.3,0
		c0.5,0,0.7,0.2,0.7,0.7c0,0.1,0,0.3,0,0.4c0,0.1-0.1,0.3-0.1,0.4c-0.1,0.2-0.2,0.4-0.4,0.5c-0.2,0.1-0.4,0.2-0.6,0.2
		c-0.2,0-0.5,0.1-0.7,0c-0.2,0-0.5,0-0.7,0l-2.7,0.1c0.1,1,0.1,2,0.2,2.9c0.1,1,0.2,1.9,0.3,2.9c0.1,0.8,0.2,1.5,0.2,2.3
		c0.1,0.8,0.2,1.5,0.3,2.3v0.3c0,0.2-0.1,0.4-0.2,0.5s-0.3,0.1-0.6,0.1c-0.4,0-0.8-0.1-1.2-0.2c-0.3-0.1-0.4-0.2-0.6-0.3
		c-0.1-0.1-0.2-0.3-0.3-0.4c-0.1-0.2-0.1-0.3-0.1-0.5c0-0.2,0-0.4,0-0.6c-0.1-1.6-0.2-3.1-0.3-4.7c-0.1-1.6-0.2-3.1-0.3-4.7
		c-0.1-1.2-0.1-2.3-0.2-3.5c-0.1-1.1-0.1-2.3-0.1-3.5c0-0.6,0-1.1,0.1-1.6c0.1-0.4,0.3-0.8,0.5-1.1c0.2-0.3,0.6-0.5,1-0.6
		c0.5-0.1,1-0.2,1.8-0.2c0.8,0,1.5,0,2.2,0c0.7,0,1.5,0,2.2,0c0.3,0,0.5,0,0.8,0s0.5,0,0.7,0.1c0.1,0,0.3,0.1,0.4,0.1
		C112.8,23.9,112.8,24,112.8,24.2z"/>
</g>
<g>
	<path class="st2" d="M34.5,24.9H5.3l2.5,2.4h26.8C34.4,26.6,34.3,25.7,34.5,24.9z"/>
	<g>
		<path d="M34.7,24.7c-9.7,0-19.5,0-29.2,0c-0.1,0-0.7,0.2-0.5,0.3c1.1,1.1,1.9,2.1,3.3,2.5c2.5,0.6,5.9,0,8.5,0
			c5.9,0,11.8,0,17.7,0c0.1,0,0.6-0.1,0.5-0.3c0-0.8-0.1-1.6-0.1-2.4c0-0.3-0.7-0.1-0.7,0.1c-0.2,1.5,0.7,1.8-0.1,2.2
			c-0.5,0.3-2.3,0-2.9,0c-3.4,0-6.8,0-10.2,0c-3.2,0-6.4,0-9.6,0c-2.6,0-2.8,0.1-4.7-1.5c-1.1-0.9-1.5-0.3-0.8-0.6
			c0.7-0.3,2.1,0,2.8,0c3.4,0,6.7,0,10.1,0c5.2,0,10.4,0,15.6,0C34.7,25.1,35.2,24.7,34.7,24.7z"/>
	</g>
</g>
<g>
	<polygon class="st2" points="9.6,29.6 38.5,29.6 38.5,31 38.5,32.3 11.8,32.3 	"/>
	<g>
		<path d="M9.4,29.7c5.2,0,10.3,0,15.5,0c3.5,0,6.9,0,10.4,0c1.9,0,3.5-0.7,2.9,1.7c-0.3,1.3,1,0.1-0.6,0.7c-1,0.3-2.6,0-3.6,0
			c-3.5,0-7.1,0-10.6,0c-3.1,0-6.2,0-9.3,0c-2.4,0-2.5-0.7-4.1-2.7c-0.1-0.2-0.8,0.1-0.7,0.3c1,1.2,1.6,2.4,3,2.7c2.4,0.7,6,0,8.5,0
			c5.9,0,11.8,0,17.7,0c0.1,0,0.5-0.1,0.5-0.3c0-0.9,0-1.8,0-2.7c0-0.1-0.2-0.1-0.2-0.1c-9.7,0-19.3,0-29,0
			C9.5,29.4,8.9,29.7,9.4,29.7z"/>
	</g>
</g>
<g>
	<polygon class="st2" points="13.8,34.5 38.5,34.5 38.5,37 15.7,37 	"/>
	<g>
		<path d="M13.7,34.7c4.4,0,8.9,0,13.3,0c2.7,0,5.5,0,8.2,0c1.9,0,3.4-0.7,3,1.6c-0.2,1.1,0.8,0-0.3,0.5c-0.7,0.3-2.2,0-2.9,0
			c-3,0-6.1,0-9.1,0c-2.7,0-5.5,0.3-8.2,0c-2.1-0.3-2-0.5-3.5-2.4c-0.1-0.2-0.8,0.1-0.7,0.3c0.9,1.1,1.3,2.1,2.6,2.5
			c1.9,0.6,5.1,0,7.1,0c5.1,0,10.2,0,15.2,0c0.1,0,0.5-0.1,0.5-0.3c0-0.8,0-1.6,0-2.4c0-0.1-0.2-0.1-0.2-0.1c-8.2,0-16.5,0-24.7,0
			C13.7,34.4,13.2,34.7,13.7,34.7z"/>
	</g>
</g>
<g>
	<polygon class="st2" points="17.5,39.1 38.9,39.1 38.9,41.5 19.1,41.5 	"/>
	<g>
		<path d="M17.4,39.3c3.8,0,7.7,0,11.5,0c2.5,0,4.9,0,7.4,0c1.6,0,3.1-0.5,2.2,1.8c-0.2,0.7,1,0-0.4,0.3c-0.8,0.2-1.9,0-2.7,0
			c-2.7,0-5.3,0-8,0c-2.2,0-4.7,0.3-6.9,0c-1.7-0.3-1.6-0.7-2.7-2.4c-0.1-0.2-0.8,0.1-0.7,0.2c0.5,0.8,1.1,2.1,1.9,2.5
			c1.2,0.6,4.4,0,5.7,0c4.7,0,9.3,0,14,0c0.1,0,0.5-0.1,0.5-0.3c0-0.8,0-1.6,0-2.4c0-0.1-0.2-0.1-0.2-0.1c-7.1,0-14.2,0-21.4,0
			C17.4,38.9,16.9,39.3,17.4,39.3z"/>
	</g>
</g>
<g>
	<polygon class="st2" points="20.8,43.7 38.9,43.7 38.9,46.1 22.2,46.1 	"/>
	<g>
		<path d="M20.6,43.8c3.4,0,6.7,0,10.1,0c2,0,4.1,0,6.1,0c1.9,0,1.8-0.3,1.6,1.7c-0.1,0.9,0.9,0.1-0.1,0.4c-0.6,0.2-1.5,0-2.1,0
			c-2.2,0-4.5,0-6.7,0c-1.9,0-4.3,0.3-6.2,0c-1.5-0.3-1.4-0.8-2.3-2.4c-0.1-0.2-0.8,0.1-0.7,0.2c0.5,0.8,0.9,1.6,1.4,2.4
			c0,0.1,0.1,0.1,0.2,0.1c5.6,0,11.1,0,16.7,0c0.1,0,0.5-0.1,0.5-0.3c0-0.8,0-1.6,0-2.4c0-0.1-0.2-0.1-0.2-0.1c-6,0-12.1,0-18.1,0
			C20.7,43.5,20.1,43.8,20.6,43.8z"/>
	</g>
</g>
<g>
	<path class="st2" d="M115,23.9h29.2l-2.5,2.4h-26.8C115.1,25.6,115.2,24.7,115,23.9z"/>
	<g>
		<path d="M114.8,24.1c5.2,0,10.4,0,15.6,0c3.3,0,6.5,0,9.8,0c0.8,0,2.5-0.3,3.2,0c0.8,0.4,0.5-0.5-0.4,0.7
			c-2.3,2.9-10.2,1.4-14.1,1.4c-3.3,0-6.6,0-9.9,0c-0.8,0-2.6,0.4-3.3,0c-0.9-0.4-0.2-0.9-0.4-2.3c0-0.2-0.8-0.1-0.7,0.2
			c0,0.8-0.1,1.6-0.1,2.4c0,0.1,0.1,0.1,0.2,0.1c6.2,0,12.4,0,18.7,0c2.3,0,5.8,0.7,8,0c1.3-0.4,2.2-1.6,3.2-2.6
			c0.2-0.1,0-0.2-0.1-0.2c-9.7,0-19.5,0-29.2,0C114.8,23.7,114.3,24.1,114.8,24.1z"/>
	</g>
</g>
<g>
	<polygon class="st2" points="142.4,28.7 113.5,28.7 113.5,30.1 113.5,31.4 140.2,31.4 	"/>
	<g>
		<path d="M142.6,28.5c-9.7,0-19.3,0-29,0c-0.1,0-0.5,0.1-0.5,0.3c0,0.9,0,1.8,0,2.7c0,0.1,0.2,0.1,0.2,0.1c6.4,0,12.7,0,19.1,0
			c2,0,5.7,0.7,7.6,0c1.2-0.5,2-1.8,2.8-2.9c0.2-0.2-0.5-0.1-0.7,0c-1.8,2.1-1.3,2.5-3.8,2.5c-3,0-5.9,0-8.9,0c-3.7,0-7.4,0-11.1,0
			c-1,0-2.5,0.3-3.4,0c-1.7-0.5-0.3,0.5-1.1-0.9c-1.2-2.1,0.8-1.5,2.6-1.5c3.3,0,6.6,0,9.9,0c5.3,0,10.6,0,16,0
			C142.5,28.9,143.1,28.5,142.6,28.5z"/>
	</g>
</g>
<g>
	<polygon class="st2" points="138.2,33.6 113.5,33.6 113.5,36.1 136.3,36.1 	"/>
	<g>
		<path d="M138.3,33.5c-8.2,0-16.5,0-24.7,0c-0.1,0-0.5,0.1-0.5,0.3c0,0.8,0,1.6,0,2.4c0,0.1,0.2,0.1,0.2,0.1c5.5,0,11.1,0,16.6,0
			c4.6,0,5.8,0.9,8.6-2.6c0.2-0.2-0.5-0.1-0.7,0c-1.6,2-1,2-3.2,2.2c-2.6,0.3-5.5,0-8.2,0c-2.9,0-5.8,0-8.7,0c-0.8,0-2.3,0.3-3.1,0
			c-1.3-0.5-0.2,0.3-0.8-0.7c-1.2-1.9,0.7-1.4,2.3-1.4c2.9,0,5.7,0,8.6,0c4.4,0,8.9,0,13.3,0C138.3,33.8,138.8,33.5,138.3,33.5z"/>
	</g>
</g>
<g>
	<polygon class="st2" points="134.5,38.2 113.1,38.2 113.1,40.6 132.8,40.6 	"/>
	<g>
		<path d="M134.6,38c-7.1,0-14.2,0-21.4,0c-0.1,0-0.5,0.1-0.5,0.3c0,0.8,0,1.6,0,2.4c0,0.1,0.2,0.1,0.2,0.1c4.9,0,9.8,0,14.7,0
			c4.2,0,4.8,0.8,7.1-2.6c0.2-0.2-0.6-0.1-0.7,0c-1.1,1.7-0.8,2-2.3,2.2c-2.1,0.3-4.5,0-6.7,0c-2.7,0-5.4,0-8,0c-0.8,0-2,0.2-2.8,0
			c-1.2-0.3-0.4,0.2-0.9-0.5c-0.4-0.5,0.2-1.9-0.2-1.6c0.3-0.2,1.6,0,1.9,0c2.4,0,4.8,0,7.2,0c4,0,8,0,11.9,0
			C134.6,38.4,135.1,38,134.6,38z"/>
	</g>
</g>
<g>
	<polygon class="st2" points="131.2,42.8 113.1,42.8 113.1,45.2 129.8,45.2 	"/>
	<g>
		<path d="M131.4,42.6c-6,0-12.1,0-18.1,0c-0.1,0-0.5,0.1-0.5,0.3c0,0.8,0,1.6,0,2.4c0,0.1,0.2,0.1,0.2,0.1c5.6,0,11.1,0,16.7,0
			c0.2,0,0.4-0.1,0.5-0.2c0.5-0.8,0.9-1.6,1.4-2.4c0.1-0.1-0.6-0.1-0.7,0.1c-0.4,0.6-0.7,1.8-1.3,2.3c0.3-0.3,0.1-0.1-0.5,0
			c-2,0.2-4,0-6,0c-2.2,0-4.5,0-6.7,0c-0.6,0-1.9,0.3-2.4,0c-0.8-0.4,0,0.5-0.4-0.6c-0.2-0.6,0.3-2-0.4-1.5c0.2-0.2,1.2,0,1.5,0
			c2,0,4,0,6,0c3.5,0,7,0,10.5,0C131.3,42.9,131.9,42.6,131.4,42.6z"/>
	</g>
</g>
<g>
	<path d="M25.5,47.9H24v4h-0.4v-4h-1.5v-0.3h3.4V47.9z"/>
	<path d="M26.8,49.2c0.1-0.2,0.3-0.3,0.5-0.4s0.4-0.2,0.6-0.2c0.4,0,0.6,0.1,0.8,0.3c0.2,0.2,0.3,0.5,0.3,0.9v2.1h-0.4v-2.1
		c0-0.3-0.1-0.5-0.2-0.6c-0.1-0.1-0.3-0.2-0.6-0.2c-0.2,0-0.4,0.1-0.6,0.2c-0.2,0.1-0.3,0.3-0.4,0.5v2.2h-0.4v-4.5h0.4V49.2z"/>
	<path d="M31.3,51.9c-0.3,0-0.5-0.1-0.8-0.2c-0.2-0.1-0.4-0.3-0.5-0.6c-0.1-0.2-0.2-0.5-0.2-0.8v-0.1c0-0.3,0.1-0.6,0.2-0.8
		s0.3-0.4,0.5-0.6c0.2-0.1,0.5-0.2,0.7-0.2c0.4,0,0.7,0.1,0.9,0.4s0.3,0.6,0.3,1.1v0.2h-2.3v0.1c0,0.4,0.1,0.7,0.3,0.9
		c0.2,0.2,0.5,0.4,0.8,0.4c0.2,0,0.4,0,0.5-0.1s0.3-0.2,0.4-0.3l0.2,0.2C32.2,51.7,31.8,51.9,31.3,51.9z M31.3,48.9
		c-0.3,0-0.5,0.1-0.7,0.3c-0.2,0.2-0.3,0.5-0.3,0.8h2v0c0-0.3-0.1-0.6-0.3-0.7S31.5,48.9,31.3,48.9z"/>
	<path d="M38.2,47.9h-1.5v4h-0.4v-4h-1.5v-0.3h3.4V47.9z"/>
	<path d="M38.6,50.2c0-0.3,0.1-0.6,0.2-0.8s0.3-0.4,0.5-0.6c0.2-0.1,0.5-0.2,0.8-0.2c0.4,0,0.8,0.1,1.1,0.4c0.3,0.3,0.4,0.7,0.4,1.2
		v0.1c0,0.3-0.1,0.6-0.2,0.8s-0.3,0.4-0.5,0.6c-0.2,0.1-0.5,0.2-0.8,0.2c-0.4,0-0.8-0.1-1.1-0.4C38.8,51.1,38.6,50.8,38.6,50.2
		L38.6,50.2z M39,50.3c0,0.4,0.1,0.7,0.3,0.9c0.2,0.2,0.5,0.4,0.8,0.4c0.3,0,0.6-0.1,0.8-0.4c0.2-0.2,0.3-0.6,0.3-1v-0.1
		c0-0.2,0-0.5-0.1-0.7c-0.1-0.2-0.2-0.4-0.4-0.5s-0.4-0.2-0.6-0.2c-0.3,0-0.6,0.1-0.8,0.4C39.1,49.5,39,49.8,39,50.3L39,50.3z"/>
	<path d="M45.2,50.3c0,0.5-0.1,0.9-0.3,1.2c-0.2,0.3-0.5,0.4-0.9,0.4c-0.4,0-0.8-0.2-1-0.5V53h-0.4v-4.4h0.3l0,0.4
		c0.2-0.3,0.6-0.5,1-0.5c0.4,0,0.7,0.1,0.9,0.4C45,49.3,45.2,49.7,45.2,50.3L45.2,50.3z M44.8,50.2c0-0.4-0.1-0.7-0.3-1
		s-0.4-0.4-0.7-0.4c-0.2,0-0.4,0.1-0.6,0.2c-0.2,0.1-0.3,0.3-0.4,0.5V51c0.1,0.2,0.2,0.3,0.4,0.4c0.2,0.1,0.4,0.1,0.6,0.1
		c0.3,0,0.5-0.1,0.7-0.4S44.8,50.7,44.8,50.2z"/>
	<path d="M50.7,51.8h-2.8v-0.3l1.5-1.7c0.2-0.3,0.4-0.5,0.5-0.7c0.1-0.2,0.1-0.4,0.1-0.5c0-0.3-0.1-0.5-0.2-0.6
		c-0.2-0.2-0.4-0.2-0.7-0.2c-0.3,0-0.5,0.1-0.7,0.3c-0.2,0.2-0.3,0.4-0.3,0.7h-0.4c0-0.2,0.1-0.5,0.2-0.7s0.3-0.4,0.5-0.5
		c0.2-0.1,0.4-0.2,0.7-0.2c0.4,0,0.7,0.1,0.9,0.3c0.2,0.2,0.3,0.5,0.3,0.8c0,0.2-0.1,0.4-0.2,0.7c-0.1,0.2-0.4,0.5-0.7,0.9l-1.2,1.3
		h2.3V51.8z"/>
	<path d="M51.9,49.6l0.2-2.1h2.2v0.3h-1.9l-0.2,1.4c0.2-0.2,0.5-0.2,0.8-0.2c0.4,0,0.7,0.1,0.9,0.4s0.4,0.6,0.4,1
		c0,0.4-0.1,0.8-0.3,1c-0.2,0.2-0.6,0.4-1,0.4c-0.4,0-0.7-0.1-0.9-0.3c-0.2-0.2-0.4-0.5-0.4-0.9h0.3c0,0.3,0.1,0.5,0.3,0.7
		c0.2,0.1,0.4,0.2,0.7,0.2c0.3,0,0.6-0.1,0.7-0.3c0.2-0.2,0.2-0.5,0.2-0.8c0-0.3-0.1-0.6-0.3-0.8c-0.2-0.2-0.4-0.3-0.7-0.3
		c-0.2,0-0.3,0-0.4,0.1c-0.1,0-0.3,0.1-0.4,0.2L51.9,49.6z"/>
	<path d="M60.4,51.3c-0.1,0.2-0.3,0.3-0.6,0.4c-0.3,0.1-0.6,0.1-0.9,0.1c-0.3,0-0.6-0.1-0.9-0.2c-0.3-0.2-0.5-0.4-0.6-0.7
		c-0.1-0.3-0.2-0.6-0.2-1v-0.5c0-0.6,0.2-1.1,0.5-1.4c0.3-0.3,0.7-0.5,1.2-0.5c0.5,0,0.8,0.1,1.1,0.3c0.3,0.2,0.4,0.5,0.5,0.9H60
		c-0.1-0.3-0.2-0.6-0.4-0.7c-0.2-0.2-0.5-0.2-0.8-0.2c-0.4,0-0.7,0.1-1,0.4c-0.2,0.3-0.4,0.7-0.4,1.2v0.5c0,0.3,0.1,0.6,0.2,0.9
		c0.1,0.2,0.3,0.4,0.5,0.6c0.2,0.1,0.5,0.2,0.7,0.2c0.3,0,0.6,0,0.8-0.1c0.1-0.1,0.3-0.1,0.3-0.2v-1.1h-1.2v-0.3h1.6V51.3z"/>
	<path d="M61.6,47.7c0-0.1,0-0.1,0.1-0.2c0,0,0.1-0.1,0.2-0.1c0.1,0,0.1,0,0.2,0.1c0,0,0.1,0.1,0.1,0.2c0,0.1,0,0.1-0.1,0.2
		c0,0-0.1,0.1-0.2,0.1c-0.1,0-0.1,0-0.2-0.1C61.6,47.9,61.6,47.8,61.6,47.7z M62,51.8h-0.4v-3.2H62V51.8z"/>
	<path d="M63.5,51.8v-2.9H63v-0.3h0.5v-0.4c0-0.3,0.1-0.6,0.3-0.7s0.4-0.3,0.7-0.3c0.1,0,0.3,0,0.4,0l0,0.3c-0.1,0-0.2,0-0.3,0
		c-0.2,0-0.4,0.1-0.5,0.2s-0.2,0.3-0.2,0.5v0.4h0.8v0.3h-0.8v2.9H63.5z"/>
	<path d="M67.5,51c0-0.2-0.1-0.3-0.2-0.4c-0.1-0.1-0.4-0.2-0.7-0.2c-0.3-0.1-0.5-0.1-0.7-0.2c-0.2-0.1-0.3-0.2-0.4-0.3
		c-0.1-0.1-0.1-0.2-0.1-0.4c0-0.2,0.1-0.5,0.3-0.6c0.2-0.2,0.5-0.2,0.8-0.2c0.4,0,0.7,0.1,0.9,0.3c0.2,0.2,0.3,0.4,0.3,0.7h-0.4
		c0-0.2-0.1-0.3-0.2-0.5c-0.2-0.1-0.4-0.2-0.6-0.2c-0.2,0-0.4,0.1-0.6,0.2c-0.1,0.1-0.2,0.2-0.2,0.4c0,0.2,0.1,0.3,0.2,0.4
		s0.3,0.2,0.7,0.2s0.6,0.1,0.7,0.2c0.2,0.1,0.3,0.2,0.4,0.3c0.1,0.1,0.1,0.3,0.1,0.4c0,0.3-0.1,0.5-0.3,0.6
		c-0.2,0.2-0.5,0.2-0.9,0.2c-0.4,0-0.7-0.1-0.9-0.3c-0.2-0.2-0.4-0.4-0.4-0.7h0.4c0,0.2,0.1,0.4,0.3,0.5c0.2,0.1,0.4,0.2,0.6,0.2
		c0.3,0,0.5-0.1,0.6-0.2S67.5,51.2,67.5,51z"/>
	<path d="M73.6,47.9h-1.5v4h-0.4v-4h-1.5v-0.3h3.4V47.9z"/>
	<path d="M75.8,49c-0.1,0-0.2,0-0.2,0c-0.2,0-0.4,0.1-0.6,0.2c-0.2,0.1-0.3,0.3-0.3,0.5v2.2h-0.4v-3.2h0.4l0,0.5
		c0.2-0.4,0.5-0.6,0.9-0.6c0.1,0,0.2,0,0.2,0L75.8,49z"/>
	<path d="M77.8,51.9c-0.3,0-0.5-0.1-0.8-0.2c-0.2-0.1-0.4-0.3-0.5-0.6c-0.1-0.2-0.2-0.5-0.2-0.8v-0.1c0-0.3,0.1-0.6,0.2-0.8
		c0.1-0.2,0.3-0.4,0.5-0.6c0.2-0.1,0.5-0.2,0.7-0.2c0.4,0,0.7,0.1,0.9,0.4s0.3,0.6,0.3,1.1v0.2h-2.3v0.1c0,0.4,0.1,0.7,0.3,0.9
		c0.2,0.2,0.5,0.4,0.8,0.4c0.2,0,0.4,0,0.5-0.1c0.1-0.1,0.3-0.2,0.4-0.3l0.2,0.2C78.7,51.7,78.4,51.9,77.8,51.9z M77.8,48.9
		c-0.3,0-0.5,0.1-0.7,0.3c-0.2,0.2-0.3,0.5-0.3,0.8h2v0c0-0.3-0.1-0.6-0.3-0.7C78.3,49,78.1,48.9,77.8,48.9z"/>
	<path d="M80.4,48.7l0,0.5c0.1-0.2,0.3-0.3,0.5-0.4c0.2-0.1,0.4-0.2,0.6-0.2c0.4,0,0.6,0.1,0.8,0.3s0.3,0.5,0.3,0.9v2.1h-0.4v-2.1
		c0-0.3-0.1-0.5-0.2-0.6c-0.1-0.1-0.3-0.2-0.6-0.2c-0.2,0-0.4,0.1-0.6,0.2c-0.2,0.1-0.3,0.3-0.4,0.5v2.2H80v-3.2H80.4z"/>
	<path d="M83.5,50.2c0-0.5,0.1-0.9,0.3-1.2c0.2-0.3,0.5-0.4,0.9-0.4c0.4,0,0.8,0.2,1,0.5v-1.8h0.4v4.5h-0.3l0-0.4
		c-0.2,0.3-0.6,0.5-1,0.5c-0.4,0-0.7-0.1-0.9-0.4C83.7,51.2,83.5,50.8,83.5,50.2L83.5,50.2z M83.9,50.3c0,0.4,0.1,0.7,0.2,1
		s0.4,0.3,0.7,0.3c0.4,0,0.8-0.2,0.9-0.6v-1.5c-0.2-0.4-0.5-0.6-0.9-0.6c-0.3,0-0.5,0.1-0.7,0.3C84,49.5,83.9,49.8,83.9,50.3z"/>
	<path d="M87.4,47.7c0-0.1,0-0.1,0.1-0.2c0,0,0.1-0.1,0.2-0.1c0.1,0,0.1,0,0.2,0.1c0,0,0.1,0.1,0.1,0.2c0,0.1,0,0.1-0.1,0.2
		c0,0-0.1,0.1-0.2,0.1c-0.1,0-0.1,0-0.2-0.1C87.4,47.9,87.4,47.8,87.4,47.7z M87.8,51.8h-0.4v-3.2h0.4V51.8z"/>
	<path d="M89.4,48.7l0,0.5c0.1-0.2,0.3-0.3,0.5-0.4c0.2-0.1,0.4-0.2,0.6-0.2c0.4,0,0.6,0.1,0.8,0.3s0.3,0.5,0.3,0.9v2.1h-0.4v-2.1
		c0-0.3-0.1-0.5-0.2-0.6c-0.1-0.1-0.3-0.2-0.6-0.2c-0.2,0-0.4,0.1-0.6,0.2c-0.2,0.1-0.3,0.3-0.4,0.5v2.2H89v-3.2H89.4z"/>
	<path d="M92.5,50.2c0-0.5,0.1-0.9,0.3-1.2c0.2-0.3,0.5-0.4,0.9-0.4c0.4,0,0.8,0.2,1,0.5l0-0.5h0.3v3.1c0,0.4-0.1,0.7-0.4,1
		s-0.6,0.4-1,0.4c-0.2,0-0.4,0-0.7-0.1c-0.2-0.1-0.4-0.2-0.5-0.4l0.2-0.2c0.3,0.3,0.6,0.5,0.9,0.5c0.3,0,0.5-0.1,0.7-0.3
		c0.2-0.2,0.3-0.4,0.3-0.7v-0.4c-0.2,0.3-0.6,0.5-1,0.5c-0.4,0-0.7-0.1-0.9-0.4S92.5,50.8,92.5,50.2L92.5,50.2z M92.9,50.3
		c0,0.4,0.1,0.7,0.2,1s0.4,0.3,0.7,0.3c0.4,0,0.8-0.2,0.9-0.6v-1.5c-0.1-0.2-0.2-0.4-0.4-0.5c-0.2-0.1-0.3-0.2-0.6-0.2
		c-0.3,0-0.5,0.1-0.7,0.3C93,49.5,92.9,49.8,92.9,50.3z"/>
	<path d="M99.9,50.1h-1.3v1.8h-0.4v-4.3h1.4c0.5,0,0.8,0.1,1.1,0.3c0.3,0.2,0.4,0.5,0.4,0.9c0,0.3-0.1,0.5-0.2,0.7
		c-0.2,0.2-0.4,0.4-0.7,0.4l1.1,1.8v0h-0.4L99.9,50.1z M98.6,49.7h1.1c0.3,0,0.6-0.1,0.8-0.3c0.2-0.2,0.3-0.4,0.3-0.7
		c0-0.3-0.1-0.5-0.3-0.7c-0.2-0.2-0.5-0.2-0.8-0.2h-1V49.7z"/>
	<path d="M102.3,47.7c0-0.1,0-0.1,0.1-0.2c0,0,0.1-0.1,0.2-0.1c0.1,0,0.1,0,0.2,0.1c0,0,0.1,0.1,0.1,0.2c0,0.1,0,0.1-0.1,0.2
		c0,0-0.1,0.1-0.2,0.1c-0.1,0-0.1,0-0.2-0.1C102.3,47.9,102.3,47.8,102.3,47.7z M102.7,51.8h-0.4v-3.2h0.4V51.8z"/>
	<path d="M103.8,50.2c0-0.5,0.1-0.9,0.3-1.2c0.2-0.3,0.5-0.4,0.9-0.4c0.4,0,0.8,0.2,1,0.5l0-0.5h0.3v3.1c0,0.4-0.1,0.7-0.4,1
		s-0.6,0.4-1,0.4c-0.2,0-0.4,0-0.7-0.1c-0.2-0.1-0.4-0.2-0.5-0.4l0.2-0.2c0.3,0.3,0.6,0.5,0.9,0.5c0.3,0,0.5-0.1,0.7-0.3
		c0.2-0.2,0.3-0.4,0.3-0.7v-0.4c-0.2,0.3-0.6,0.5-1,0.5c-0.4,0-0.7-0.1-0.9-0.4S103.8,50.8,103.8,50.2L103.8,50.2z M104.2,50.3
		c0,0.4,0.1,0.7,0.2,1s0.4,0.3,0.7,0.3c0.4,0,0.8-0.2,0.9-0.6v-1.5c-0.1-0.2-0.2-0.4-0.4-0.5c-0.2-0.1-0.3-0.2-0.6-0.2
		c-0.3,0-0.5,0.1-0.7,0.3C104.3,49.5,104.2,49.8,104.2,50.3z"/>
	<path d="M108,49.2c0.1-0.2,0.3-0.3,0.5-0.4c0.2-0.1,0.4-0.2,0.6-0.2c0.4,0,0.6,0.1,0.8,0.3s0.3,0.5,0.3,0.9v2.1h-0.4v-2.1
		c0-0.3-0.1-0.5-0.2-0.6c-0.1-0.1-0.3-0.2-0.6-0.2c-0.2,0-0.4,0.1-0.6,0.2c-0.2,0.1-0.3,0.3-0.4,0.5v2.2h-0.4v-4.5h0.4V49.2z"/>
	<path d="M111.9,47.8v0.8h0.7v0.3h-0.7v2.1c0,0.2,0,0.3,0.1,0.4s0.2,0.1,0.3,0.1c0.1,0,0.2,0,0.3,0l0,0.3c-0.1,0-0.2,0-0.4,0
		c-0.2,0-0.4-0.1-0.5-0.2s-0.2-0.3-0.2-0.6v-2.1h-0.6v-0.3h0.6v-0.8H111.9z"/>
	<path d="M118.7,51.8h-0.4l-2.5-3.7v3.7h-0.4v-4.3h0.4l2.5,3.7v-3.7h0.4V51.8z"/>
	<path d="M123.3,49.9c0,0.4-0.1,0.7-0.2,1c-0.1,0.3-0.3,0.5-0.6,0.7c-0.3,0.2-0.6,0.2-0.9,0.2c-0.5,0-0.9-0.2-1.2-0.5
		c-0.3-0.4-0.5-0.8-0.5-1.4v-0.4c0-0.4,0.1-0.7,0.2-1s0.3-0.5,0.6-0.7c0.3-0.2,0.6-0.2,0.9-0.2s0.6,0.1,0.9,0.2
		c0.3,0.2,0.5,0.4,0.6,0.7s0.2,0.6,0.2,1V49.9z M122.9,49.5c0-0.5-0.1-0.9-0.4-1.2c-0.2-0.3-0.6-0.4-1-0.4c-0.4,0-0.7,0.1-1,0.4
		c-0.2,0.3-0.4,0.7-0.4,1.2v0.4c0,0.5,0.1,0.9,0.4,1.2c0.2,0.3,0.6,0.4,1,0.4c0.4,0,0.7-0.1,1-0.4c0.2-0.3,0.4-0.7,0.4-1.2V49.5z"/>
	<path d="M125.3,50.7l0.1,0.7l0.2-0.6l1-3.1h0.3l0.9,3.1l0.2,0.6l0.1-0.7l0.8-3.1h0.4l-1.1,4.3h-0.4l-1-3.3l-0.1-0.4l-0.1,0.4
		l-1,3.3h-0.4l-1.1-4.3h0.4L125.3,50.7z"/>
</g>
</svg>
